<mxfile host="app.diagrams.net" modified="2020-10-20T12:37:57.569Z" agent="5.0 (Windows NT 10.0; Win64; x64) AppleWebKit/537.36 (KHTML, like Gecko) Chrome/86.0.4240.75 Safari/537.36" etag="eroQmdfKTQfYuxbubHII" version="13.8.0" type="github">
  <diagram id="R2lEEEUBdFMjLlhIrx00" name="Page-1">
    <mxGraphModel dx="1456" dy="876" grid="1" gridSize="10" guides="1" tooltips="1" connect="1" arrows="1" fold="1" page="1" pageScale="1" pageWidth="850" pageHeight="1100" math="0" shadow="0" extFonts="Permanent Marker^https://fonts.googleapis.com/css?family=Permanent+Marker">
      <root>
        <mxCell id="0" />
        <mxCell id="1" parent="0" />
        <mxCell id="FscwYrJq2X8lKoOZ9Ko7-1" value="Runner" style="whiteSpace=wrap;html=1;align=center;" vertex="1" parent="1">
          <mxGeometry x="110" y="250" width="100" height="40" as="geometry" />
        </mxCell>
        <mxCell id="FscwYrJq2X8lKoOZ9Ko7-2" value="Training Plan" style="whiteSpace=wrap;html=1;align=center;" vertex="1" parent="1">
          <mxGeometry x="600" y="250" width="100" height="40" as="geometry" />
        </mxCell>
        <mxCell id="FscwYrJq2X8lKoOZ9Ko7-3" value="Workout" style="whiteSpace=wrap;html=1;align=center;" vertex="1" parent="1">
          <mxGeometry x="600" y="660" width="100" height="40" as="geometry" />
        </mxCell>
        <mxCell id="FscwYrJq2X8lKoOZ9Ko7-4" value="Subscribes to" style="shape=rhombus;perimeter=rhombusPerimeter;whiteSpace=wrap;html=1;align=center;" vertex="1" parent="1">
          <mxGeometry x="365" y="240" width="120" height="60" as="geometry" />
        </mxCell>
        <mxCell id="FscwYrJq2X8lKoOZ9Ko7-5" value="Contains" style="shape=rhombus;perimeter=rhombusPerimeter;whiteSpace=wrap;html=1;align=center;" vertex="1" parent="1">
          <mxGeometry x="590" y="470" width="120" height="60" as="geometry" />
        </mxCell>
        <mxCell id="FscwYrJq2X8lKoOZ9Ko7-6" value="Performs" style="shape=rhombus;perimeter=rhombusPerimeter;whiteSpace=wrap;html=1;align=center;" vertex="1" parent="1">
          <mxGeometry x="100" y="650" width="120" height="60" as="geometry" />
        </mxCell>
        <mxCell id="FscwYrJq2X8lKoOZ9Ko7-11" value="" style="endArrow=none;html=1;rounded=0;exitX=1;exitY=0.5;exitDx=0;exitDy=0;entryX=0;entryY=0.5;entryDx=0;entryDy=0;" edge="1" parent="1" source="FscwYrJq2X8lKoOZ9Ko7-4" target="FscwYrJq2X8lKoOZ9Ko7-2">
          <mxGeometry relative="1" as="geometry">
            <mxPoint x="490" y="270" as="sourcePoint" />
            <mxPoint x="740" y="250" as="targetPoint" />
          </mxGeometry>
        </mxCell>
        <mxCell id="FscwYrJq2X8lKoOZ9Ko7-12" value="1" style="resizable=0;html=1;align=right;verticalAlign=bottom;" connectable="0" vertex="1" parent="FscwYrJq2X8lKoOZ9Ko7-11">
          <mxGeometry x="1" relative="1" as="geometry">
            <mxPoint x="-10" y="20" as="offset" />
          </mxGeometry>
        </mxCell>
        <mxCell id="FscwYrJq2X8lKoOZ9Ko7-13" value="" style="endArrow=none;html=1;rounded=0;exitX=0;exitY=0.5;exitDx=0;exitDy=0;entryX=1;entryY=0.5;entryDx=0;entryDy=0;" edge="1" parent="1" source="FscwYrJq2X8lKoOZ9Ko7-4" target="FscwYrJq2X8lKoOZ9Ko7-1">
          <mxGeometry relative="1" as="geometry">
            <mxPoint x="310" y="140" as="sourcePoint" />
            <mxPoint x="425" y="140" as="targetPoint" />
          </mxGeometry>
        </mxCell>
        <mxCell id="FscwYrJq2X8lKoOZ9Ko7-14" value="M" style="resizable=0;html=1;align=right;verticalAlign=bottom;" connectable="0" vertex="1" parent="FscwYrJq2X8lKoOZ9Ko7-13">
          <mxGeometry x="1" relative="1" as="geometry">
            <mxPoint x="20" y="20" as="offset" />
          </mxGeometry>
        </mxCell>
        <mxCell id="FscwYrJq2X8lKoOZ9Ko7-15" value="" style="endArrow=none;html=1;rounded=0;entryX=0.5;entryY=1;entryDx=0;entryDy=0;exitX=0.5;exitY=0;exitDx=0;exitDy=0;" edge="1" parent="1" source="FscwYrJq2X8lKoOZ9Ko7-6" target="FscwYrJq2X8lKoOZ9Ko7-1">
          <mxGeometry relative="1" as="geometry">
            <mxPoint x="160" y="590" as="sourcePoint" />
            <mxPoint x="159.5" y="320" as="targetPoint" />
          </mxGeometry>
        </mxCell>
        <mxCell id="FscwYrJq2X8lKoOZ9Ko7-16" value="M" style="resizable=0;html=1;align=right;verticalAlign=bottom;" connectable="0" vertex="1" parent="FscwYrJq2X8lKoOZ9Ko7-15">
          <mxGeometry x="1" relative="1" as="geometry">
            <mxPoint x="20" y="20" as="offset" />
          </mxGeometry>
        </mxCell>
        <mxCell id="FscwYrJq2X8lKoOZ9Ko7-17" value="" style="endArrow=none;html=1;rounded=0;exitX=0;exitY=0.5;exitDx=0;exitDy=0;entryX=1;entryY=0.5;entryDx=0;entryDy=0;" edge="1" parent="1" target="FscwYrJq2X8lKoOZ9Ko7-6">
          <mxGeometry relative="1" as="geometry">
            <mxPoint x="600" y="679.5" as="sourcePoint" />
            <mxPoint x="445" y="679.5" as="targetPoint" />
          </mxGeometry>
        </mxCell>
        <mxCell id="FscwYrJq2X8lKoOZ9Ko7-18" value="M" style="resizable=0;html=1;align=right;verticalAlign=bottom;" connectable="0" vertex="1" parent="FscwYrJq2X8lKoOZ9Ko7-17">
          <mxGeometry x="1" relative="1" as="geometry">
            <mxPoint x="370" as="offset" />
          </mxGeometry>
        </mxCell>
        <mxCell id="FscwYrJq2X8lKoOZ9Ko7-21" value="" style="endArrow=none;html=1;rounded=0;entryX=0.5;entryY=1;entryDx=0;entryDy=0;" edge="1" parent="1">
          <mxGeometry relative="1" as="geometry">
            <mxPoint x="650" y="470" as="sourcePoint" />
            <mxPoint x="649.5" y="290" as="targetPoint" />
          </mxGeometry>
        </mxCell>
        <mxCell id="FscwYrJq2X8lKoOZ9Ko7-22" value="M" style="resizable=0;html=1;align=right;verticalAlign=bottom;" connectable="0" vertex="1" parent="FscwYrJq2X8lKoOZ9Ko7-21">
          <mxGeometry x="1" relative="1" as="geometry">
            <mxPoint x="20" y="20" as="offset" />
          </mxGeometry>
        </mxCell>
        <mxCell id="FscwYrJq2X8lKoOZ9Ko7-23" value="" style="endArrow=none;html=1;rounded=0;entryX=0.5;entryY=0;entryDx=0;entryDy=0;exitX=0.5;exitY=1;exitDx=0;exitDy=0;" edge="1" parent="1" source="FscwYrJq2X8lKoOZ9Ko7-5" target="FscwYrJq2X8lKoOZ9Ko7-3">
          <mxGeometry relative="1" as="geometry">
            <mxPoint x="660" y="480" as="sourcePoint" />
            <mxPoint x="659.5" y="300" as="targetPoint" />
          </mxGeometry>
        </mxCell>
        <mxCell id="FscwYrJq2X8lKoOZ9Ko7-24" value="M" style="resizable=0;html=1;align=right;verticalAlign=bottom;" connectable="0" vertex="1" parent="FscwYrJq2X8lKoOZ9Ko7-23">
          <mxGeometry x="1" relative="1" as="geometry">
            <mxPoint x="20" y="-10" as="offset" />
          </mxGeometry>
        </mxCell>
        <mxCell id="FscwYrJq2X8lKoOZ9Ko7-25" value="Name" style="ellipse;whiteSpace=wrap;html=1;align=center;" vertex="1" parent="1">
          <mxGeometry y="140" width="100" height="40" as="geometry" />
        </mxCell>
        <mxCell id="FscwYrJq2X8lKoOZ9Ko7-26" value="Age" style="ellipse;whiteSpace=wrap;html=1;align=center;" vertex="1" parent="1">
          <mxGeometry x="110" y="140" width="100" height="40" as="geometry" />
        </mxCell>
        <mxCell id="FscwYrJq2X8lKoOZ9Ko7-27" value="Weight" style="ellipse;whiteSpace=wrap;html=1;align=center;" vertex="1" parent="1">
          <mxGeometry x="220" y="140" width="100" height="40" as="geometry" />
        </mxCell>
        <mxCell id="FscwYrJq2X8lKoOZ9Ko7-28" value="" style="endArrow=none;html=1;rounded=0;exitX=0.5;exitY=1;exitDx=0;exitDy=0;entryX=0;entryY=0;entryDx=0;entryDy=0;" edge="1" parent="1" source="FscwYrJq2X8lKoOZ9Ko7-25" target="FscwYrJq2X8lKoOZ9Ko7-1">
          <mxGeometry relative="1" as="geometry">
            <mxPoint x="50" y="220" as="sourcePoint" />
            <mxPoint x="210" y="220" as="targetPoint" />
          </mxGeometry>
        </mxCell>
        <mxCell id="FscwYrJq2X8lKoOZ9Ko7-30" value="" style="endArrow=none;html=1;rounded=0;exitX=0.5;exitY=1;exitDx=0;exitDy=0;entryX=0.5;entryY=0;entryDx=0;entryDy=0;" edge="1" parent="1" source="FscwYrJq2X8lKoOZ9Ko7-26" target="FscwYrJq2X8lKoOZ9Ko7-1">
          <mxGeometry relative="1" as="geometry">
            <mxPoint x="140" y="210" as="sourcePoint" />
            <mxPoint x="200" y="280" as="targetPoint" />
          </mxGeometry>
        </mxCell>
        <mxCell id="FscwYrJq2X8lKoOZ9Ko7-31" value="" style="endArrow=none;html=1;rounded=0;exitX=0.5;exitY=1;exitDx=0;exitDy=0;entryX=1;entryY=0;entryDx=0;entryDy=0;" edge="1" parent="1" source="FscwYrJq2X8lKoOZ9Ko7-27" target="FscwYrJq2X8lKoOZ9Ko7-1">
          <mxGeometry relative="1" as="geometry">
            <mxPoint x="210" y="200" as="sourcePoint" />
            <mxPoint x="270" y="270" as="targetPoint" />
          </mxGeometry>
        </mxCell>
        <mxCell id="FscwYrJq2X8lKoOZ9Ko7-32" value="Goal" style="ellipse;whiteSpace=wrap;html=1;align=center;" vertex="1" parent="1">
          <mxGeometry x="10" y="370" width="100" height="40" as="geometry" />
        </mxCell>
        <mxCell id="FscwYrJq2X8lKoOZ9Ko7-33" value="" style="endArrow=none;html=1;rounded=0;exitX=0.5;exitY=1;exitDx=0;exitDy=0;entryX=0.5;entryY=0;entryDx=0;entryDy=0;" edge="1" parent="1" target="FscwYrJq2X8lKoOZ9Ko7-32">
          <mxGeometry relative="1" as="geometry">
            <mxPoint x="110" y="290" as="sourcePoint" />
            <mxPoint x="170" y="360" as="targetPoint" />
          </mxGeometry>
        </mxCell>
        <mxCell id="FscwYrJq2X8lKoOZ9Ko7-34" value="Goal Distance" style="ellipse;whiteSpace=wrap;html=1;align=center;" vertex="1" parent="1">
          <mxGeometry x="485" y="130" width="100" height="40" as="geometry" />
        </mxCell>
        <mxCell id="FscwYrJq2X8lKoOZ9Ko7-35" value="Goal Pace" style="ellipse;whiteSpace=wrap;html=1;align=center;" vertex="1" parent="1">
          <mxGeometry x="600" y="130" width="100" height="40" as="geometry" />
        </mxCell>
        <mxCell id="FscwYrJq2X8lKoOZ9Ko7-36" value="Time Allotted" style="ellipse;whiteSpace=wrap;html=1;align=center;" vertex="1" parent="1">
          <mxGeometry x="720" y="130" width="100" height="40" as="geometry" />
        </mxCell>
        <mxCell id="FscwYrJq2X8lKoOZ9Ko7-37" value="" style="endArrow=none;html=1;rounded=0;exitX=0.5;exitY=1;exitDx=0;exitDy=0;entryX=0;entryY=0;entryDx=0;entryDy=0;" edge="1" parent="1" source="FscwYrJq2X8lKoOZ9Ko7-34" target="FscwYrJq2X8lKoOZ9Ko7-2">
          <mxGeometry relative="1" as="geometry">
            <mxPoint x="540" y="220" as="sourcePoint" />
            <mxPoint x="480" y="290" as="targetPoint" />
          </mxGeometry>
        </mxCell>
        <mxCell id="FscwYrJq2X8lKoOZ9Ko7-38" value="" style="endArrow=none;html=1;rounded=0;exitX=0.5;exitY=1;exitDx=0;exitDy=0;entryX=0.5;entryY=0;entryDx=0;entryDy=0;" edge="1" parent="1" source="FscwYrJq2X8lKoOZ9Ko7-35" target="FscwYrJq2X8lKoOZ9Ko7-2">
          <mxGeometry relative="1" as="geometry">
            <mxPoint x="610" y="200" as="sourcePoint" />
            <mxPoint x="550" y="270" as="targetPoint" />
          </mxGeometry>
        </mxCell>
        <mxCell id="FscwYrJq2X8lKoOZ9Ko7-39" value="" style="endArrow=none;html=1;rounded=0;exitX=0.5;exitY=1;exitDx=0;exitDy=0;entryX=1;entryY=0;entryDx=0;entryDy=0;" edge="1" parent="1" source="FscwYrJq2X8lKoOZ9Ko7-36" target="FscwYrJq2X8lKoOZ9Ko7-2">
          <mxGeometry relative="1" as="geometry">
            <mxPoint x="710" y="210" as="sourcePoint" />
            <mxPoint x="650" y="280" as="targetPoint" />
          </mxGeometry>
        </mxCell>
        <mxCell id="FscwYrJq2X8lKoOZ9Ko7-40" value="Distance" style="ellipse;whiteSpace=wrap;html=1;align=center;" vertex="1" parent="1">
          <mxGeometry x="490" y="790" width="100" height="40" as="geometry" />
        </mxCell>
        <mxCell id="FscwYrJq2X8lKoOZ9Ko7-41" value="Pace" style="ellipse;whiteSpace=wrap;html=1;align=center;" vertex="1" parent="1">
          <mxGeometry x="605" y="790" width="100" height="40" as="geometry" />
        </mxCell>
        <mxCell id="FscwYrJq2X8lKoOZ9Ko7-42" value="Description" style="ellipse;whiteSpace=wrap;html=1;align=center;" vertex="1" parent="1">
          <mxGeometry x="725" y="790" width="100" height="40" as="geometry" />
        </mxCell>
        <mxCell id="FscwYrJq2X8lKoOZ9Ko7-44" value="" style="endArrow=none;html=1;rounded=0;exitX=0;exitY=1;exitDx=0;exitDy=0;entryX=0.5;entryY=0;entryDx=0;entryDy=0;" edge="1" parent="1" source="FscwYrJq2X8lKoOZ9Ko7-3" target="FscwYrJq2X8lKoOZ9Ko7-40">
          <mxGeometry relative="1" as="geometry">
            <mxPoint x="500" y="750" as="sourcePoint" />
            <mxPoint x="565" y="830" as="targetPoint" />
          </mxGeometry>
        </mxCell>
        <mxCell id="FscwYrJq2X8lKoOZ9Ko7-45" value="" style="endArrow=none;html=1;rounded=0;exitX=0.5;exitY=1;exitDx=0;exitDy=0;entryX=0.5;entryY=0;entryDx=0;entryDy=0;" edge="1" parent="1" source="FscwYrJq2X8lKoOZ9Ko7-3" target="FscwYrJq2X8lKoOZ9Ko7-41">
          <mxGeometry relative="1" as="geometry">
            <mxPoint x="650" y="740" as="sourcePoint" />
            <mxPoint x="590" y="830" as="targetPoint" />
          </mxGeometry>
        </mxCell>
        <mxCell id="FscwYrJq2X8lKoOZ9Ko7-46" value="" style="endArrow=none;html=1;rounded=0;exitX=1;exitY=1;exitDx=0;exitDy=0;entryX=0.5;entryY=0;entryDx=0;entryDy=0;" edge="1" parent="1" source="FscwYrJq2X8lKoOZ9Ko7-3" target="FscwYrJq2X8lKoOZ9Ko7-42">
          <mxGeometry relative="1" as="geometry">
            <mxPoint x="700" y="740" as="sourcePoint" />
            <mxPoint x="640" y="830" as="targetPoint" />
          </mxGeometry>
        </mxCell>
        <mxCell id="FscwYrJq2X8lKoOZ9Ko7-47" value="Weight" style="ellipse;whiteSpace=wrap;html=1;align=center;" vertex="1" parent="1">
          <mxGeometry x="325" y="170" width="100" height="40" as="geometry" />
        </mxCell>
        <mxCell id="FscwYrJq2X8lKoOZ9Ko7-48" value="" style="endArrow=none;html=1;rounded=0;exitX=0;exitY=1;exitDx=0;exitDy=0;entryX=1;entryY=0;entryDx=0;entryDy=0;" edge="1" parent="1" source="FscwYrJq2X8lKoOZ9Ko7-47" target="FscwYrJq2X8lKoOZ9Ko7-1">
          <mxGeometry relative="1" as="geometry">
            <mxPoint x="280" y="240" as="sourcePoint" />
            <mxPoint x="220" y="310" as="targetPoint" />
          </mxGeometry>
        </mxCell>
      </root>
    </mxGraphModel>
  </diagram>
</mxfile>
